<svg height="512" viewBox="0 0 512 512" width="512" xmlns="http://www.w3.org/2000/svg"><path fill="#fff" d="M409.39 511.36V317.202s-5.75-51.938-56-51.938c-50.218 0-59.405 49.375-59.405 49.375v196.72h-103.5l1.688-320.72h100.125l-.813 40.313s20.876-52.688 99.53-52.688c78.626 0 114.25 45.188 120.876 129.688V511.36h-102.5zM63.548 145.077C27.984 145.078-.89 119.64-.89 88.203s28.874-56.938 64.437-56.938 64.438 25.5 64.438 56.938-28.876 56.875-64.438 56.875zm63.875 366.656H.172v-320.28l127.25-.814v321.094z"/></svg>