<svg xmlns="http://www.w3.org/2000/svg" width="61" height="61" viewBox="0 0 61 61"><path fill-rule="evenodd" clip-rule="evenodd" fill="#fff" d="M41.1 6.6c4.7-.1 7.2 1.6 9.5 3.8 2-.2 4.6-1.3 6.2-2.1.5-.3 1-.5 1.5-.8-.9 2.4-2.1 4.3-3.9 5.7-.4.3-.8.7-1.3.9 2.6 0 4.8-1.2 6.8-1.8-1.1 1.7-2.5 3.5-4.1 4.7-.6.5-1.3 1-1.9 1.5 0 2.8 0 5.4-.6 7.8-3 13.6-11 22.8-23.7 26.7-4.5 1.4-11.9 2-17.1.7-2.6-.6-4.9-1.4-7.1-2.3-1.2-.5-2.3-1.1-3.4-1.8-.4-.2-.7-.4-1.1-.6 1.2 0 2.5.4 3.9.1 1.2-.2 2.4-.1 3.4-.4 2.7-.6 5.2-1.4 7.2-2.6 1-.6 2.5-1.3 3.3-2.1-1.4 0-2.6-.3-3.6-.6-3.9-1.4-6.2-3.9-7.7-7.7 1.2.1 4.6.4 5.4-.2-1.5-.1-2.9-.9-3.9-1.6-3.1-2-5.7-5.3-5.7-10.3l1.2.6c.8.3 1.6.5 2.5.7.4.1 1.2.3 1.6.1h-.1c-.6-.7-1.6-1.2-2.2-1.9-2-2.5-3.9-6.4-2.7-11 .3-1.2.8-2.2 1.3-3.1h.1c.2.5.8.9 1.1 1.3 1 1.3 2.3 2.4 3.6 3.4 4.4 3.4 8.4 5.6 14.8 7.1 1.6.4 3.5.7 5.4.7-.5-1.6-.4-4.1.1-5.7 1.1-3.8 3.4-6.6 6.8-8.1.8-.4 1.7-.6 2.7-.8.7-.2 1.2-.2 1.7-.3z"/></svg>